<svg width="1440" height="669" viewBox="0 0 1440 669" fill="none" xmlns="http://www.w3.org/2000/svg">
<rect width="1440" height="669" fill="#1A0725"/>
<path d="M954.5 510.482L995.5 487.573L1036.5 510.482L1036.5 552.202L995.5 572.442L954.5 552.202V510.482Z" fill="#1A0725" fill-opacity="0.3" stroke="#491369"/>
<path d="M1036.5 510.482L1077.51 487.57L1118.5 509.488V552.202L1077.5 572.442L1036.5 552.202V510.482Z" fill="#1A0725" fill-opacity="0.3" stroke="#491369"/>
<path d="M995.5 444.804L1036.5 423.563L1077.5 444.804V487.864L1036.27 510.429L995.5 487.866V444.804Z" fill="#1A0725" fill-opacity="0.3" stroke="#491369"/>
<path d="M1077.5 572.432L1118.5 551.561L1159.5 572.432L1159.5 614.536L1118.27 637.427L1077.5 614.538V572.432Z" fill="#1A0725" fill-opacity="0.3" stroke="#491369"/>
<path d="M909.5 117.482L950.5 94.5728L991.5 117.482L991.5 159.202L950.5 179.442L909.5 159.202V117.482Z" fill="#1A0725" fill-opacity="0.3" stroke="#491369"/>
<path d="M991.5 117.482L1032.51 94.5698L1073.5 116.488V159.202L1032.5 179.442L991.5 159.202V117.482Z" fill="#1A0725" fill-opacity="0.3" stroke="#491369"/>
<path d="M950.5 51.8041L991.5 30.5631L1032.5 51.8041V94.864L991.273 117.429L950.5 94.8656V51.8041Z" fill="#1A0725" fill-opacity="0.3" stroke="#491369"/>
<path d="M1032.5 179.432L1073.5 158.561L1114.5 179.432L1114.5 221.536L1073.27 244.427L1032.5 221.538V179.432Z" fill="#1A0725" fill-opacity="0.3" stroke="#491369"/>
</svg>
