<svg width="100%" height="100%" viewBox="0 0 1440 820" fill="none" xmlns="http://www.w3.org/2000/svg">
<g clip-path="url(#clip0_777_4770)">
<rect width="1440" height="820" fill="#1A0725"/>
<g opacity="0.25" filter="url(#filter0_b_777_4770)">
<circle cx="744.232" cy="656.48" r="252" fill="url(#paint0_linear_777_4770)" fill-opacity="0.01"/>
</g>
<rect width="139" height="44" transform="translate(73 50)" fill="#5C5A5A"/>
<g filter="url(#filter1_d_777_4770)">
<circle cx="198.5" cy="328.5" r="422.5" fill="#2C0B3F"/>
</g>
<path d="M1264.5 228.482L1305.5 205.573L1346.5 228.482L1346.5 270.202L1305.5 290.442L1264.5 270.202V228.482Z" fill="#1A0725" stroke="#491369"/>
<path d="M1346.5 228.482L1387.5 205.573L1428.5 228.482L1428.5 270.202L1387.5 290.442L1346.5 270.202V228.482Z" fill="#1A0725" stroke="#491369"/>
<path d="M1305.5 163.618L1346.5 140.574L1387.5 163.618L1387.5 205.606L1346.27 228.428L1305.5 205.608V163.618Z" fill="#1A0725" stroke="#491369"/>
<path d="M1387.5 290.432L1428.5 269.561L1469.5 290.432L1469.5 332.536L1428.27 355.427L1387.5 332.538V290.432Z" fill="#1A0725" stroke="#491369"/>
<g opacity="0.5">
<mask id="mask0_777_4770" style="mask-type:alpha" maskUnits="userSpaceOnUse" x="-61" y="-68" width="845" height="845">
<circle cx="361.5" cy="354.5" r="422.5" fill="#491369"/>
</mask>
<g mask="url(#mask0_777_4770)">
<g filter="url(#filter2_d_777_4770)">
<circle cx="361.5" cy="354.5" r="422.5" fill="#694513"/>
</g>
<ellipse cx="572.339" cy="50.9766" rx="289.9" ry="276.631" fill="#691713"/>
<ellipse cx="708.649" cy="565.363" rx="285.503" ry="308.453" fill="#FA6476"/>
<ellipse cx="359.692" cy="310.733" rx="283.878" ry="225.616" fill="#F62898"/>
<ellipse cx="45.0359" cy="-59.0631" rx="309.724" ry="228.077" fill="#491369"/>
<ellipse cx="43.3572" cy="684.756" rx="314.509" ry="311.385" fill="#2C1369"/>
<g filter="url(#filter3_b_777_4770)">
<circle cx="364" cy="354.5" r="422.5" fill="#491369" fill-opacity="0.01"/>
</g>
</g>
</g>
<path d="M143.5 692.482L184.5 669.573L225.5 692.482L225.5 734.202L184.5 754.442L143.5 734.202V692.482Z" fill="#1A0725" fill-opacity="0.3" stroke="#491369"/>
<path d="M225.5 692.482L266.5 669.573L307.5 692.482L307.5 734.202L266.5 754.442L225.5 734.202V692.482Z" fill="#1A0725" fill-opacity="0.3" stroke="#491369"/>
<path d="M184.5 627.618L225.5 604.574L266.5 627.618L266.5 669.606L225.273 692.428L184.5 669.608V627.618Z" fill="#1A0725" fill-opacity="0.3" stroke="#491369"/>
<path d="M266.5 754.432L307.5 733.561L348.5 754.432L348.5 796.536L307.273 819.427L266.5 796.538V754.432Z" fill="#1A0725" fill-opacity="0.3" stroke="#491369"/>
<path d="M1264.5 356.482L1305.5 333.573L1346.5 356.482L1346.5 398.202L1305.5 418.442L1264.5 398.202V356.482Z" fill="#1A0725" fill-opacity="0.3" stroke="#491369"/>
<path d="M1346.5 356.482L1387.51 333.57L1428.5 355.488V398.202L1387.5 418.442L1346.5 398.202V356.482Z" fill="#1A0725" fill-opacity="0.3" stroke="#491369"/>
<path d="M1305.5 290.804L1346.5 269.563L1387.5 290.804V333.864L1346.27 356.429L1305.5 333.866V290.804Z" fill="#1A0725" fill-opacity="0.3" stroke="#491369"/>
<path d="M1387.5 418.432L1428.5 397.561L1469.5 418.432L1469.5 460.536L1428.27 483.427L1387.5 460.538V418.432Z" fill="#1A0725" fill-opacity="0.3" stroke="#491369"/>
<g opacity="0.25" filter="url(#filter4_f_777_4770)">
<circle cx="252" cy="252" r="252" transform="matrix(1 0 0 -1 949 1029)" fill="url(#paint1_linear_777_4770)"/>
</g>
</g>
<defs>
<filter id="filter0_b_777_4770" x="290.632" y="202.88" width="907.2" height="907.2" filterUnits="userSpaceOnUse" color-interpolation-filters="sRGB">
<feFlood flood-opacity="0" result="BackgroundImageFix"/>
<feGaussianBlur in="BackgroundImageFix" stdDeviation="100.8"/>
<feComposite in2="SourceAlpha" operator="in" result="effect1_backgroundBlur_777_4770"/>
<feBlend mode="normal" in="SourceGraphic" in2="effect1_backgroundBlur_777_4770" result="shape"/>
</filter>
<filter id="filter1_d_777_4770" x="-228" y="-94" width="853" height="853" filterUnits="userSpaceOnUse" color-interpolation-filters="sRGB">
<feFlood flood-opacity="0" result="BackgroundImageFix"/>
<feColorMatrix in="SourceAlpha" type="matrix" values="0 0 0 0 0 0 0 0 0 0 0 0 0 0 0 0 0 0 127 0" result="hardAlpha"/>
<feOffset dy="4"/>
<feGaussianBlur stdDeviation="2"/>
<feComposite in2="hardAlpha" operator="out"/>
<feColorMatrix type="matrix" values="0 0 0 0 0 0 0 0 0 0 0 0 0 0 0 0 0 0 0.25 0"/>
<feBlend mode="normal" in2="BackgroundImageFix" result="effect1_dropShadow_777_4770"/>
<feBlend mode="normal" in="SourceGraphic" in2="effect1_dropShadow_777_4770" result="shape"/>
</filter>
<filter id="filter2_d_777_4770" x="-65" y="-68" width="853" height="853" filterUnits="userSpaceOnUse" color-interpolation-filters="sRGB">
<feFlood flood-opacity="0" result="BackgroundImageFix"/>
<feColorMatrix in="SourceAlpha" type="matrix" values="0 0 0 0 0 0 0 0 0 0 0 0 0 0 0 0 0 0 127 0" result="hardAlpha"/>
<feOffset dy="4"/>
<feGaussianBlur stdDeviation="2"/>
<feComposite in2="hardAlpha" operator="out"/>
<feColorMatrix type="matrix" values="0 0 0 0 0 0 0 0 0 0 0 0 0 0 0 0 0 0 0.25 0"/>
<feBlend mode="normal" in2="BackgroundImageFix" result="effect1_dropShadow_777_4770"/>
<feBlend mode="normal" in="SourceGraphic" in2="effect1_dropShadow_777_4770" result="shape"/>
</filter>
<filter id="filter3_b_777_4770" x="-396.5" y="-406" width="1521" height="1521" filterUnits="userSpaceOnUse" color-interpolation-filters="sRGB">
<feFlood flood-opacity="0" result="BackgroundImageFix"/>
<feGaussianBlur in="BackgroundImageFix" stdDeviation="169"/>
<feComposite in2="SourceAlpha" operator="in" result="effect1_backgroundBlur_777_4770"/>
<feBlend mode="normal" in="SourceGraphic" in2="effect1_backgroundBlur_777_4770" result="shape"/>
</filter>
<filter id="filter4_f_777_4770" x="938.92" y="514.92" width="524.16" height="524.16" filterUnits="userSpaceOnUse" color-interpolation-filters="sRGB">
<feFlood flood-opacity="0" result="BackgroundImageFix"/>
<feBlend mode="normal" in="SourceGraphic" in2="BackgroundImageFix" result="shape"/>
<feGaussianBlur stdDeviation="5.04" result="effect1_foregroundBlur_777_4770"/>
</filter>
<linearGradient id="paint0_linear_777_4770" x1="744.232" y1="404.48" x2="744.232" y2="908.48" gradientUnits="userSpaceOnUse">
<stop offset="0.25" stop-color="#B9B5B5" stop-opacity="0.1"/>
<stop offset="1" stop-color="#B9B5B5"/>
</linearGradient>
<linearGradient id="paint1_linear_777_4770" x1="252" y1="0" x2="252" y2="504" gradientUnits="userSpaceOnUse">
<stop offset="0.25" stop-color="#B9B5B5" stop-opacity="0.1"/>
<stop offset="1" stop-color="#B9B5B5"/>
</linearGradient>
<clipPath id="clip0_777_4770">
<rect width="1440" height="820" fill="white"/>
</clipPath>
</defs>
</svg>
